<mxfile host="app.diagrams.net" modified="2023-03-07T09:27:36.747Z" agent="5.0 (Windows NT 10.0; Win64; x64) AppleWebKit/537.36 (KHTML, like Gecko) Chrome/110.0.0.0 Safari/537.36" etag="ipwbjSUV17GYB7GDboXj" version="20.8.23" type="github">
  <diagram name="Page-1" id="cyE6r87VwmoGF0Nu_CWS">
    <mxGraphModel dx="1674" dy="764" grid="1" gridSize="10" guides="1" tooltips="1" connect="1" arrows="1" fold="1" page="1" pageScale="1" pageWidth="1920" pageHeight="1200" math="0" shadow="0">
      <root>
        <mxCell id="0" />
        <mxCell id="1" parent="0" />
        <mxCell id="Y0urSurzt9ogv07wNozt-1" value="" style="endArrow=classic;html=1;rounded=0;" edge="1" parent="1">
          <mxGeometry width="50" height="50" relative="1" as="geometry">
            <mxPoint x="200" y="120" as="sourcePoint" />
            <mxPoint x="360" y="120" as="targetPoint" />
          </mxGeometry>
        </mxCell>
        <mxCell id="Y0urSurzt9ogv07wNozt-2" value="" style="endArrow=classic;html=1;rounded=0;" edge="1" parent="1">
          <mxGeometry width="50" height="50" relative="1" as="geometry">
            <mxPoint x="190" y="480" as="sourcePoint" />
            <mxPoint x="360" y="480" as="targetPoint" />
          </mxGeometry>
        </mxCell>
        <mxCell id="Y0urSurzt9ogv07wNozt-3" value="" style="rounded=0;whiteSpace=wrap;html=1;" vertex="1" parent="1">
          <mxGeometry x="400" y="40" width="210" height="490" as="geometry" />
        </mxCell>
        <mxCell id="Y0urSurzt9ogv07wNozt-4" value="MosaicAuthFilter" style="text;html=1;strokeColor=none;fillColor=none;align=center;verticalAlign=middle;whiteSpace=wrap;rounded=0;" vertex="1" parent="1">
          <mxGeometry x="450" y="10" width="110" height="30" as="geometry" />
        </mxCell>
        <mxCell id="Y0urSurzt9ogv07wNozt-5" value="Auth Token (Guest User)" style="text;html=1;strokeColor=none;fillColor=none;align=center;verticalAlign=middle;whiteSpace=wrap;rounded=0;" vertex="1" parent="1">
          <mxGeometry x="200" y="84" width="160" height="30" as="geometry" />
        </mxCell>
        <mxCell id="Y0urSurzt9ogv07wNozt-6" value="Auth Token (Registered User)" style="text;html=1;strokeColor=none;fillColor=none;align=center;verticalAlign=middle;whiteSpace=wrap;rounded=0;" vertex="1" parent="1">
          <mxGeometry x="190" y="447" width="160" height="30" as="geometry" />
        </mxCell>
        <mxCell id="Y0urSurzt9ogv07wNozt-7" value="Extract Token" style="rounded=0;whiteSpace=wrap;html=1;" vertex="1" parent="1">
          <mxGeometry x="420" y="50" width="180" height="60" as="geometry" />
        </mxCell>
        <mxCell id="Y0urSurzt9ogv07wNozt-9" value="Create Mosaic User" style="rounded=0;whiteSpace=wrap;html=1;" vertex="1" parent="1">
          <mxGeometry x="420" y="200" width="180" height="60" as="geometry" />
        </mxCell>
        <mxCell id="Y0urSurzt9ogv07wNozt-11" value="Bind User Object&lt;br&gt;&amp;nbsp;to Application Context" style="rounded=0;whiteSpace=wrap;html=1;" vertex="1" parent="1">
          <mxGeometry x="420" y="270" width="180" height="60" as="geometry" />
        </mxCell>
        <mxCell id="Y0urSurzt9ogv07wNozt-12" value="DB" style="shape=cylinder3;whiteSpace=wrap;html=1;boundedLbl=1;backgroundOutline=1;size=15;" vertex="1" parent="1">
          <mxGeometry x="1170" y="230" width="60" height="80" as="geometry" />
        </mxCell>
        <mxCell id="Y0urSurzt9ogv07wNozt-13" value="" style="endArrow=none;dashed=1;html=1;dashPattern=1 3;strokeWidth=2;rounded=0;" edge="1" parent="1">
          <mxGeometry width="50" height="50" relative="1" as="geometry">
            <mxPoint x="1202" y="530" as="sourcePoint" />
            <mxPoint x="1202" y="30" as="targetPoint" />
          </mxGeometry>
        </mxCell>
        <mxCell id="Y0urSurzt9ogv07wNozt-14" value="" style="rounded=0;whiteSpace=wrap;html=1;" vertex="1" parent="1">
          <mxGeometry x="750" y="40" width="320" height="70" as="geometry" />
        </mxCell>
        <mxCell id="Y0urSurzt9ogv07wNozt-15" value="MosaicApplicationContext" style="text;html=1;strokeColor=none;fillColor=none;align=center;verticalAlign=middle;whiteSpace=wrap;rounded=0;" vertex="1" parent="1">
          <mxGeometry x="950" y="10" width="110" height="30" as="geometry" />
        </mxCell>
        <mxCell id="Y0urSurzt9ogv07wNozt-16" value="" style="rounded=0;whiteSpace=wrap;html=1;" vertex="1" parent="1">
          <mxGeometry x="760" y="60" width="190" height="40" as="geometry" />
        </mxCell>
        <mxCell id="Y0urSurzt9ogv07wNozt-18" value="" style="endArrow=none;dashed=1;html=1;dashPattern=1 3;strokeWidth=2;rounded=0;" edge="1" parent="1">
          <mxGeometry width="50" height="50" relative="1" as="geometry">
            <mxPoint x="670" y="535" as="sourcePoint" />
            <mxPoint x="670" y="35" as="targetPoint" />
          </mxGeometry>
        </mxCell>
        <mxCell id="Y0urSurzt9ogv07wNozt-19" value="User Info" style="text;html=1;strokeColor=none;fillColor=none;align=center;verticalAlign=middle;whiteSpace=wrap;rounded=0;" vertex="1" parent="1">
          <mxGeometry x="770" y="68" width="60" height="30" as="geometry" />
        </mxCell>
        <mxCell id="Y0urSurzt9ogv07wNozt-20" value="Merchant Info" style="text;html=1;strokeColor=none;fillColor=none;align=center;verticalAlign=middle;whiteSpace=wrap;rounded=0;" vertex="1" parent="1">
          <mxGeometry x="827" y="68" width="150" height="30" as="geometry" />
        </mxCell>
        <mxCell id="Y0urSurzt9ogv07wNozt-21" value="Mosaic User" style="text;html=1;strokeColor=none;fillColor=none;align=center;verticalAlign=middle;whiteSpace=wrap;rounded=0;" vertex="1" parent="1">
          <mxGeometry x="714" y="36" width="160" height="30" as="geometry" />
        </mxCell>
        <mxCell id="Y0urSurzt9ogv07wNozt-22" value="Controller Layer" style="text;html=1;strokeColor=none;fillColor=none;align=center;verticalAlign=middle;whiteSpace=wrap;rounded=0;" vertex="1" parent="1">
          <mxGeometry x="640" y="538" width="60" height="30" as="geometry" />
        </mxCell>
        <mxCell id="Y0urSurzt9ogv07wNozt-23" value="DAO Layer" style="text;html=1;strokeColor=none;fillColor=none;align=center;verticalAlign=middle;whiteSpace=wrap;rounded=0;" vertex="1" parent="1">
          <mxGeometry x="1170" y="538" width="60" height="30" as="geometry" />
        </mxCell>
        <mxCell id="Y0urSurzt9ogv07wNozt-24" value="" style="endArrow=classic;html=1;rounded=0;" edge="1" parent="1">
          <mxGeometry width="50" height="50" relative="1" as="geometry">
            <mxPoint x="750" y="67" as="sourcePoint" />
            <mxPoint x="620" y="67" as="targetPoint" />
          </mxGeometry>
        </mxCell>
        <mxCell id="Y0urSurzt9ogv07wNozt-25" value="" style="endArrow=classic;html=1;rounded=0;exitX=1;exitY=0.5;exitDx=0;exitDy=0;" edge="1" parent="1" source="Y0urSurzt9ogv07wNozt-14">
          <mxGeometry width="50" height="50" relative="1" as="geometry">
            <mxPoint x="1270" y="74.5" as="sourcePoint" />
            <mxPoint x="1180" y="75" as="targetPoint" />
          </mxGeometry>
        </mxCell>
        <mxCell id="Y0urSurzt9ogv07wNozt-26" value="Create Application Context" style="rounded=0;whiteSpace=wrap;html=1;" vertex="1" parent="1">
          <mxGeometry x="420" y="120" width="180" height="60" as="geometry" />
        </mxCell>
      </root>
    </mxGraphModel>
  </diagram>
</mxfile>
